# xmcd
#
# Track frame offsets:
#  150
#  14770
#  24327
#  37942
#  45877
#  57892
#  68835
#  81035
#  94590
#  108512
#
# Disc length: 1584 seconds
#
# Revision: 0
# Processed by: cddbd v1.4b41PL2 Copyright (c) Steve Scherf et al.
# Submitted via: AltoMP3 Maker 3.0
#
DISCID=6f062e0a
DTITLE=Fabian Gomez - con Banda Sinaloense
DYEAR=1900
DGENRE=
TTITLE0=Las higueras
TTITLE1=El desquite
TTITLE2=Como quieres que te quiera
TTITLE3=Amis amores
TTITLE4=Rayo de Sinaloa
TTITLE5=Ahi me amarás
TTITLE6=El Culichi de Sonora
TTITLE7=Ingratos ojos mios
TTITLE8=Mi gusto es
TTITLE9=Se les peló Baltazar
EXTD=
EXTT0=
EXTT1=
EXTT2=
EXTT3=
EXTT4=
EXTT5=
EXTT6=
EXTT7=
EXTT8=
EXTT9=
PLAYORDER=
